<?xml version="1.0" encoding="UTF-8"?>
<!DOCTYPE svg PUBLIC "-//W3C//DTD SVG 1.1//EN" "http://www.w3.org/Graphics/SVG/1.1/DTD/svg11.dtd">
<!-- Creator: CorelDRAW -->
<svg xmlns="http://www.w3.org/2000/svg" xml:space="preserve" width="163px" height="163px" style="shape-rendering:geometricPrecision; text-rendering:geometricPrecision; image-rendering:optimizeQuality; fill-rule:evenodd; clip-rule:evenodd" viewBox="0 0 1.70666 1.70666" xmlns:xlink="http://www.w3.org/1999/xlink">
  <defs></defs>
  <g id="Layer_x0020_1">
    <metadata id="CorelCorpID_0Corel-Layer" />
    <g id="_469753552">
      <g>
        <g id="_469753600">
          <path id="_246998960" class="fil0" d="M1.46237 1.19214l-1.21808 0c-0.0412874,0 -0.074878,-0.0335906 -0.074878,-0.074878l0 -0.727311c0,-0.0412874 0.0335906,-0.0748819 0.074878,-0.0748819l0.182591 0c0.0119685,0 0.0216654,0.00970079 0.0216654,0.0216654l0 0.202016 0.0937126 0c0.00574409,0 0.0112559,0.00227953 0.015315,0.00634646l0.159752 0.15974 0.159744 -0.15974c0.00406693,-0.00406299 0.0095748,-0.00634646 0.0153189,-0.00634646l0.365732 0 0 -0.202016c0,-0.0119685 0.00970079,-0.0216654 0.0216654,-0.0216654l0.182587 0c0.0412913,0 0.0748858,0.0335945 0.0748858,0.0748819l0 0.727307c0,0.0412913 -0.0335945,0.0748819 -0.0748858,0.0748819zm-1.21808 -0.833736c-0.0173976,0 -0.0315472,0.0141535 -0.0315472,0.0315472l0 0.727307c0,0.0174016 0.0141496,0.0315512 0.0315472,0.0315512l1.21809 0c0.0174016,0 0.0315551,-0.0141496 0.0315551,-0.0315472l0 -0.727311c0,-0.0173976 -0.0141535,-0.0315472 -0.0315551,-0.0315472l-0.160921 0 0 0.202012c0,0.0119685 -0.00970079,0.0216654 -0.0216654,0.0216654l-0.378429 0 -0.168717 0.168717c-0.00845669,0.00846457 -0.0221772,0.00846457 -0.0306378,0l-0.16872 -0.168717 -0.106406 0c-0.0119646,0 -0.0216654,-0.00969685 -0.0216654,-0.0216654l0 -0.202012 -0.160925 0z" />
        </g>
        <g id="_469753768">
          <path id="_246998672" class="fil0" d="M0.971587 1.51441l-0.236516 0c-0.0119646,0 -0.0216614,-0.00970079 -0.0216614,-0.0216654l0 -0.322264c0,-0.0119646 0.00969685,-0.0216654 0.0216614,-0.0216654l0.236516 0c0.0119646,0 0.0216654,0.00969685 0.0216654,0.0216654l0 0.322264c0,0.0119646 -0.00970079,0.0216654 -0.0216654,0.0216654zm-0.21485 -0.0433307l0.193185 0 0 -0.278933 -0.193185 0 0 0.278933z" />
        </g>
        <g id="_469753912">
          <path id="_246998888" class="fil0" d="M1.16597 1.70658l-0.625283 0c-0.0119646,0 -0.0216654,-0.00969685 -0.0216654,-0.0216654l0 -0.0960945c0,-0.0649252 0.0528228,-0.117748 0.117752,-0.117748l0.43311 0c0.0649291,0 0.117756,0.0528228 0.117756,0.117748l0 0.0960945c-3.93701e-006,0.0119685 -0.00970079,0.0216654 -0.0216693,0.0216654zm-0.603622 -0.0433307l0.581961 0 0 -0.0744291c0,-0.0410354 -0.0333858,-0.0744173 -0.0744252,-0.0744173l-0.43311 0c-0.0410354,0 -0.0744252,0.0333858 -0.0744252,0.0744173l0 0.0744291z" />
        </g>
        <g id="_469754656">
          <path id="_246999104" class="fil0" d="M1.51559 0.949705l-1.32452 0c-0.0119646,0 -0.0216654,-0.00970079 -0.0216654,-0.0216654 0,-0.0119646 0.00970079,-0.0216654 0.0216654,-0.0216654l1.32452 0c0.0119646,0 0.0216654,0.00970079 0.0216654,0.0216654 0,0.0119646 -0.00970472,0.0216654 -0.0216693,0.0216654z" />
        </g>
        <g id="_469754968">
          <path id="_246999248" class="fil0" d="M0.930201 1.07092l-0.153736 0c-0.0119646,0 -0.0216654,-0.00969685 -0.0216654,-0.0216654 0,-0.0119646 0.00970079,-0.0216614 0.0216654,-0.0216614l0.153736 0c0.0119646,0 0.0216654,0.00969685 0.0216654,0.0216614 0,0.0119685 -0.00970472,0.0216654 -0.0216654,0.0216654z" />
        </g>
        <g id="_469753888">
          <path id="_246998072" class="fil0" d="M0.717323 0.75715c-0.00574409,0 -0.0112559,-0.00228346 -0.015315,-0.00634646l-0.168724 -0.16872 -0.106406 0c-0.0119646,0 -0.0216654,-0.00970079 -0.0216654,-0.0216654l0 -0.538677c0,-0.0119685 0.00970079,-0.0216654 0.0216654,-0.0216654l0.852909 0c0.0119646,0 0.0216654,0.00969685 0.0216654,0.0216654l0 0.538681c0,0.0119685 -0.00970079,0.0216654 -0.0216654,0.0216654l-0.378425 0 -0.16872 0.168717c-0.00406299,0.00406299 -0.00957087,0.00634646 -0.0153189,0.00634646zm-0.26878 -0.218398l0.0937165 0c0.00574409,0 0.0112559,0.00228346 0.015315,0.00634646l0.159748 0.159748 0.159748 -0.159748c0.00406693,-0.00405906 0.0095748,-0.00634646 0.0153189,-0.00634646l0.365732 0 0 -0.495346 -0.809579 0 0 0.495346z" />
        </g>
        <g>
          <g id="_469754632">
            <path id="_246997760" class="fil0" d="M0.68574 0.462598c-0.0119646,0 -0.0216654,-0.00970079 -0.0216654,-0.0216654l0 -0.142031 -0.0952559 0c-0.0119685,0 -0.0216654,-0.00969685 -0.0216654,-0.0216654l0 -0.136413c0,-0.0119646 0.00969685,-0.0216614 0.0216654,-0.0216614 0.0119646,0 0.0216654,0.00969685 0.0216654,0.0216614l0 0.114752 0.0735906 0 0 -0.114752c0,-0.0119646 0.00970079,-0.0216614 0.0216654,-0.0216614 0.0119646,0 0.0216654,0.00969685 0.0216654,0.0216614l0 0.300106c0,0.0119646 -0.00970079,0.0216693 -0.0216654,0.0216693z" />
          </g>
          <g id="_469754344">
            <path id="_246997832" class="fil0" d="M0.925134 0.462602l-0.143602 0c-0.0230984,0 -0.0418858,-0.0187913 -0.0418858,-0.0418858l0 -0.258886c0,-0.0230984 0.0187913,-0.0418858 0.0418858,-0.0418858l0.143602 0c0.0230945,0 0.041878,0.0187913 0.041878,0.0418858l0 0.258882c0,0.0230945 -0.0187835,0.0418898 -0.041878,0.0418898zm-0.142157 -0.0433307l0.140713 0 0 -0.256 -0.140713 0 0 0.256z" />
          </g>
          <g id="_469754320">
            <path id="_246998168" class="fil0" d="M1.13785 0.462988c-0.0119646,0 -0.0216654,-0.00969685 -0.0216654,-0.0216614l0 -0.142035 -0.0952559 0c-0.0119685,0 -0.0216654,-0.00969685 -0.0216654,-0.0216614l0 -0.136409c0,-0.0119646 0.00970079,-0.0216654 0.0216654,-0.0216654 0.0119685,0 0.0216654,0.00970079 0.0216654,0.0216654l0 0.11474 0.0735906 3.93701e-006 0 -0.114744c0,-0.0119646 0.00970079,-0.0216654 0.0216654,-0.0216654 0.0119685,0 0.0216654,0.00970079 0.0216654,0.0216654l0 0.300106c0,0.0119646 -0.00969685,0.0216614 -0.0216654,0.0216614z" />
          </g>
        </g>
      </g>
    </g>
  </g>
</svg>